<svg fill="none" height="15" viewBox="0 0 14 15" width="14" xmlns="http://www.w3.org/2000/svg"><path d="m3.45366 2.37103c.81577-.49106 1.7488-.75055 2.69972-.75085.79116-.00047 1.57223.17853 2.28497.52364.71275.34512 1.33879.84746 1.83145 1.46958.4927.62211.8393 1.34795 1.0139 2.12342.1747.77546.173 1.58055-.0051 2.35524-.178.77469-.5277 1.499-1.0231 2.11894-.49538.62-1.12359 1.1196-1.83783 1.4615-.71423.342-1.49607.5176-2.28723.5137-.66032-.0033-1.31291-.1316-1.92398-.3769l-2.76174.4622c-.37178.0622-.676077-.2937-.556859-.6513l.700249-2.10039c-.40945-.72171-.644621-1.53193-.684127-2.36517-.045257-.95454.167967-1.90355.616967-2.74594.44899-.84239 1.11695-1.54661 1.93271-2.03767z" fill="#fff"/><g stroke="#4147d5" stroke-linecap="round" stroke-linejoin="round" stroke-width="1.5"><path d="m3.45366 2.37103c.81577-.49106 1.7488-.75055 2.69972-.75085.79116-.00047 1.57223.17853 2.28497.52364.71275.34512 1.33879.84746 1.83145 1.46958.4927.62211.8393 1.34795 1.0139 2.12342.1747.77546.173 1.58055-.0051 2.35524-.178.77469-.5277 1.499-1.0231 2.11894-.49538.62-1.12359 1.1196-1.83783 1.4615-.71423.342-1.49607.5176-2.28723.5137-.66032-.0033-1.31291-.1316-1.92398-.3769l-2.76174.4622c-.37178.0622-.676077-.2937-.556859-.6513l.700249-2.10039c-.40945-.72171-.644621-1.53193-.684127-2.36517-.045257-.95454.167967-1.90355.616967-2.74594.44899-.84239 1.11695-1.54661 1.93271-2.03767z"/><path d="m11.2535 6.35159c-.6118-.36829-1.31159-.56291-2.02478-.56314-.59338-.00035-1.17917.1339-1.71373.39274s-1.00409.63559-1.3736 1.10218c-.3695.46658-.62944 1.01096-.76044 1.59256-.13101.5816-.1297 1.18537.00383 1.76647.13353.581.39583 1.1242.76735 1.5892.37153.4649.84269.8396 1.37837 1.0961.53567.2565 1.12205.3882 1.71542.3852.49524-.0024.98468-.0986 1.44298-.2826l2.0713.3466c.2788.0467.5071-.2202.4177-.4884l-.5252-1.5753c.3071-.5413.4834-1.149.5131-1.7739.0339-.71591-.126-1.42766-.4628-2.05945-.3367-.6318-.8377-1.15997-1.4495-1.52826z" fill="#d7e0ff"/></g></svg>